<svg xmlns="http://www.w3.org/2000/svg" xmlns:xlink="http://www.w3.org/1999/xlink" contentStyleType="text/css" data-diagram-type="SEQUENCE" height="1679px" preserveAspectRatio="none" style="width:1229px;height:1679px;background:#FFFFFF;" version="1.1" viewBox="0 0 1229 1679" width="1229px" zoomAndPan="magnify"><defs/><g><g><title>React UI</title><rect fill="#FFFFFF" height="145.6641" style="stroke:#181818;stroke-width:1;" width="10" x="185.4473" y="155.5625"/></g><g><title>React UI</title><rect fill="#FFFFFF" height="1216.1797" style="stroke:#181818;stroke-width:1;" width="10" x="185.4473" y="373.4922"/></g><g><title>React UI</title><rect fill="#FFFFFF" height="969.1172" style="stroke:#181818;stroke-width:1;" width="10" x="190.4473" y="620.5547"/></g><g><title>React UI</title><rect fill="#FFFFFF" height="634.6563" style="stroke:#181818;stroke-width:1;" width="10" x="195.4473" y="955.0156"/></g><g><title>React UI</title><rect fill="#FFFFFF" height="196.7969" style="stroke:#181818;stroke-width:1;" width="10" x="200.4473" y="1392.875"/></g><g><title>Express API</title><rect fill="#FFFFFF" height="87.3984" style="stroke:#181818;stroke-width:1;" width="10" x="426.6411" y="184.6953"/></g><g><title>Express API</title><rect fill="#FFFFFF" height="116.5313" style="stroke:#181818;stroke-width:1;" width="10" x="426.6411" y="402.625"/></g><g><title>Express API</title><rect fill="#FFFFFF" height="203.9297" style="stroke:#181818;stroke-width:1;" width="10" x="426.6411" y="649.6875"/></g><g><title>Express API</title><rect fill="#FFFFFF" height="174.7969" style="stroke:#181818;stroke-width:1;" width="10" x="426.6411" y="984.1484"/></g><g><title>Express API</title><rect fill="#FFFFFF" height="129.5313" style="stroke:#181818;stroke-width:1;" width="10" x="426.6411" y="1422.0078"/></g><g><title>SQLite DB</title><rect fill="#FFFFFF" height="29.1328" style="stroke:#181818;stroke-width:1;" width="10" x="798.7383" y="213.8281"/></g><g><title>SQLite DB</title><rect fill="#FFFFFF" height="29.1328" style="stroke:#181818;stroke-width:1;" width="10" x="798.7383" y="431.7578"/></g><g><title>SQLite DB</title><rect fill="#FFFFFF" height="29.1328" style="stroke:#181818;stroke-width:1;" width="10" x="798.7383" y="678.8203"/></g><g><title>SQLite DB</title><rect fill="#FFFFFF" height="29.1328" style="stroke:#181818;stroke-width:1;" width="10" x="798.7383" y="737.0859"/></g><g><title>SQLite DB</title><rect fill="#FFFFFF" height="29.1328" style="stroke:#181818;stroke-width:1;" width="10" x="798.7383" y="1013.2813"/></g><g><title>SQLite DB</title><rect fill="#FFFFFF" height="29.1328" style="stroke:#181818;stroke-width:1;" width="10" x="798.7383" y="1071.5469"/></g><g><title>SQLite DB</title><rect fill="#FFFFFF" height="29.1328" style="stroke:#181818;stroke-width:1;" width="10" x="798.7383" y="1284.4766"/></g><g><title>SQLite DB</title><rect fill="#FFFFFF" height="29.1328" style="stroke:#181818;stroke-width:1;" width="10" x="798.7383" y="1493.2734"/></g><rect fill="none" height="75.3984" style="stroke:#000000;stroke-width:1.5;" width="457.144" x="755.4717" y="1246.2109"/><g><title>User</title><rect fill="#000000" fill-opacity="0.00000" height="1517.375" width="8" x="19.9551" y="81.2969"/><line style="stroke:#181818;stroke-width:0.5;stroke-dasharray:5,5;" x1="23" x2="23" y1="81.2969" y2="1598.6719"/></g><g><title>React UI</title><rect fill="#000000" fill-opacity="0.00000" height="1517.375" width="8" x="186.4473" y="81.2969"/><line style="stroke:#181818;stroke-width:0.5;stroke-dasharray:5,5;" x1="189.981" x2="189.981" y1="81.2969" y2="1598.6719"/></g><g><title>Express API</title><rect fill="#000000" fill-opacity="0.00000" height="1517.375" width="8" x="427.6411" y="81.2969"/><line style="stroke:#181818;stroke-width:0.5;stroke-dasharray:5,5;" x1="430.8545" x2="430.8545" y1="81.2969" y2="1598.6719"/></g><g><title>SQLite DB</title><rect fill="#000000" fill-opacity="0.00000" height="1517.375" width="8" x="799.7383" y="81.2969"/><line style="stroke:#181818;stroke-width:0.5;stroke-dasharray:5,5;" x1="803.4717" x2="803.4717" y1="81.2969" y2="1598.6719"/></g><g><title>AuditQueue</title><rect fill="#000000" fill-opacity="0.00000" height="1517.375" width="8" x="1150.2617" y="81.2969"/><line style="stroke:#181818;stroke-width:0.5;stroke-dasharray:5,5;" x1="1153.9077" x2="1153.9077" y1="81.2969" y2="1598.6719"/></g><g class="participant participant-head" data-participant="User"><text fill="#000000" font-family="sans-serif" font-size="14" lengthAdjust="spacing" textLength="31.9102" x="5" y="77.9951">User</text><ellipse cx="23.9551" cy="13.5" fill="#E2E2F0" rx="8" ry="8" style="stroke:#181818;stroke-width:0.5;"/><path d="M23.9551,21.5 L23.9551,48.5 M10.9551,29.5 L36.9551,29.5 M23.9551,48.5 L10.9551,63.5 M23.9551,48.5 L36.9551,63.5" fill="none" style="stroke:#181818;stroke-width:0.5;"/></g><g class="participant participant-tail" data-participant="User"><text fill="#000000" font-family="sans-serif" font-size="14" lengthAdjust="spacing" textLength="31.9102" x="5" y="1610.667">User</text><ellipse cx="23.9551" cy="1622.4688" fill="#E2E2F0" rx="8" ry="8" style="stroke:#181818;stroke-width:0.5;"/><path d="M23.9551,1630.4688 L23.9551,1657.4688 M10.9551,1638.4688 L36.9551,1638.4688 M23.9551,1657.4688 L10.9551,1672.4688 M23.9551,1657.4688 L36.9551,1672.4688" fill="none" style="stroke:#181818;stroke-width:0.5;"/></g><g class="participant participant-head" data-participant="UI"><rect fill="#E2E2F0" height="30.2969" rx="2.5" ry="2.5" style="stroke:#181818;stroke-width:0.5;" width="72.9326" x="153.981" y="50"/><text fill="#000000" font-family="sans-serif" font-size="14" lengthAdjust="spacing" textLength="58.9326" x="160.981" y="69.9951">React UI</text></g><g class="participant participant-tail" data-participant="UI"><rect fill="#E2E2F0" height="30.2969" rx="2.5" ry="2.5" style="stroke:#181818;stroke-width:0.5;" width="72.9326" x="153.981" y="1597.6719"/><text fill="#000000" font-family="sans-serif" font-size="14" lengthAdjust="spacing" textLength="58.9326" x="160.981" y="1617.667">React UI</text></g><g class="participant participant-head" data-participant="API"><rect fill="#E2E2F0" height="30.2969" rx="2.5" ry="2.5" style="stroke:#181818;stroke-width:0.5;" width="95.5732" x="383.8545" y="50"/><text fill="#000000" font-family="sans-serif" font-size="14" lengthAdjust="spacing" textLength="81.5732" x="390.8545" y="69.9951">Express API</text></g><g class="participant participant-tail" data-participant="API"><rect fill="#E2E2F0" height="30.2969" rx="2.5" ry="2.5" style="stroke:#181818;stroke-width:0.5;" width="95.5732" x="383.8545" y="1597.6719"/><text fill="#000000" font-family="sans-serif" font-size="14" lengthAdjust="spacing" textLength="81.5732" x="390.8545" y="1617.667">Express API</text></g><g class="participant participant-head" data-participant="DB"><text fill="#000000" font-family="sans-serif" font-size="14" lengthAdjust="spacing" textLength="70.5332" x="765.4717" y="77.9951">SQLite DB</text><path d="M785.7383,29 C785.7383,19 803.7383,19 803.7383,19 C803.7383,19 821.7383,19 821.7383,29 L821.7383,55 C821.7383,65 803.7383,65 803.7383,65 C803.7383,65 785.7383,65 785.7383,55 L785.7383,29" fill="#E2E2F0" style="stroke:#181818;stroke-width:0.5;"/><path d="M785.7383,29 C785.7383,39 803.7383,39 803.7383,39 C803.7383,39 821.7383,39 821.7383,29" fill="none" style="stroke:#181818;stroke-width:0.5;"/></g><g class="participant participant-tail" data-participant="DB"><text fill="#000000" font-family="sans-serif" font-size="14" lengthAdjust="spacing" textLength="70.5332" x="765.4717" y="1610.667">SQLite DB</text><path d="M785.7383,1623.9688 C785.7383,1613.9688 803.7383,1613.9688 803.7383,1613.9688 C803.7383,1613.9688 821.7383,1613.9688 821.7383,1623.9688 L821.7383,1649.9688 C821.7383,1659.9688 803.7383,1659.9688 803.7383,1659.9688 C803.7383,1659.9688 785.7383,1659.9688 785.7383,1649.9688 L785.7383,1623.9688" fill="#E2E2F0" style="stroke:#181818;stroke-width:0.5;"/><path d="M785.7383,1623.9688 C785.7383,1633.9688 803.7383,1633.9688 803.7383,1633.9688 C803.7383,1633.9688 821.7383,1633.9688 821.7383,1623.9688" fill="none" style="stroke:#181818;stroke-width:0.5;"/></g><g class="participant participant-head" data-participant="Q"><rect fill="#E2E2F0" height="30.2969" rx="2.5" ry="2.5" style="stroke:#181818;stroke-width:0.5;" width="96.708" x="1105.9077" y="50"/><text fill="#000000" font-family="sans-serif" font-size="14" lengthAdjust="spacing" textLength="82.708" x="1112.9077" y="69.9951">AuditQueue</text></g><g class="participant participant-tail" data-participant="Q"><rect fill="#E2E2F0" height="30.2969" rx="2.5" ry="2.5" style="stroke:#181818;stroke-width:0.5;" width="96.708" x="1105.9077" y="1597.6719"/><text fill="#000000" font-family="sans-serif" font-size="14" lengthAdjust="spacing" textLength="82.708" x="1112.9077" y="1617.667">AuditQueue</text></g><g><title>React UI</title><rect fill="#FFFFFF" height="145.6641" style="stroke:#181818;stroke-width:1;" width="10" x="185.4473" y="155.5625"/></g><g><title>React UI</title><rect fill="#FFFFFF" height="1216.1797" style="stroke:#181818;stroke-width:1;" width="10" x="185.4473" y="373.4922"/></g><g><title>React UI</title><rect fill="#FFFFFF" height="969.1172" style="stroke:#181818;stroke-width:1;" width="10" x="190.4473" y="620.5547"/></g><g><title>React UI</title><rect fill="#FFFFFF" height="634.6563" style="stroke:#181818;stroke-width:1;" width="10" x="195.4473" y="955.0156"/></g><g><title>React UI</title><rect fill="#FFFFFF" height="196.7969" style="stroke:#181818;stroke-width:1;" width="10" x="200.4473" y="1392.875"/></g><g><title>Express API</title><rect fill="#FFFFFF" height="87.3984" style="stroke:#181818;stroke-width:1;" width="10" x="426.6411" y="184.6953"/></g><g><title>Express API</title><rect fill="#FFFFFF" height="116.5313" style="stroke:#181818;stroke-width:1;" width="10" x="426.6411" y="402.625"/></g><g><title>Express API</title><rect fill="#FFFFFF" height="203.9297" style="stroke:#181818;stroke-width:1;" width="10" x="426.6411" y="649.6875"/></g><g><title>Express API</title><rect fill="#FFFFFF" height="174.7969" style="stroke:#181818;stroke-width:1;" width="10" x="426.6411" y="984.1484"/></g><g><title>Express API</title><rect fill="#FFFFFF" height="129.5313" style="stroke:#181818;stroke-width:1;" width="10" x="426.6411" y="1422.0078"/></g><g><title>SQLite DB</title><rect fill="#FFFFFF" height="29.1328" style="stroke:#181818;stroke-width:1;" width="10" x="798.7383" y="213.8281"/></g><g><title>SQLite DB</title><rect fill="#FFFFFF" height="29.1328" style="stroke:#181818;stroke-width:1;" width="10" x="798.7383" y="431.7578"/></g><g><title>SQLite DB</title><rect fill="#FFFFFF" height="29.1328" style="stroke:#181818;stroke-width:1;" width="10" x="798.7383" y="678.8203"/></g><g><title>SQLite DB</title><rect fill="#FFFFFF" height="29.1328" style="stroke:#181818;stroke-width:1;" width="10" x="798.7383" y="737.0859"/></g><g><title>SQLite DB</title><rect fill="#FFFFFF" height="29.1328" style="stroke:#181818;stroke-width:1;" width="10" x="798.7383" y="1013.2813"/></g><g><title>SQLite DB</title><rect fill="#FFFFFF" height="29.1328" style="stroke:#181818;stroke-width:1;" width="10" x="798.7383" y="1071.5469"/></g><g><title>SQLite DB</title><rect fill="#FFFFFF" height="29.1328" style="stroke:#181818;stroke-width:1;" width="10" x="798.7383" y="1284.4766"/></g><g><title>SQLite DB</title><rect fill="#FFFFFF" height="29.1328" style="stroke:#181818;stroke-width:1;" width="10" x="798.7383" y="1493.2734"/></g><rect fill="#EEEEEE" height="3" style="stroke:#EEEEEE;stroke-width:1;" width="1222.6157" x="0" y="111.8633"/><line style="stroke:#000000;stroke-width:1;" x1="0" x2="1222.6157" y1="111.8633" y2="111.8633"/><line style="stroke:#000000;stroke-width:1;" x1="0" x2="1222.6157" y1="114.8633" y2="114.8633"/><rect fill="#EEEEEE" height="23.1328" style="stroke:#000000;stroke-width:2;" width="94.7676" x="563.9241" y="101.2969"/><text fill="#000000" font-family="sans-serif" font-size="13" font-weight="bold" lengthAdjust="spacing" textLength="76.2417" x="569.9241" y="117.3638">Page Load</text><g class="message" data-participant-1="User" data-participant-2="UI"><polygon fill="#181818" points="173.4473,151.5625,183.4473,155.5625,173.4473,159.5625,177.4473,155.5625" style="stroke:#181818;stroke-width:1;"/><line style="stroke:#181818;stroke-width:1;" x1="23.9551" x2="179.4473" y1="155.5625" y2="155.5625"/><text fill="#000000" font-family="sans-serif" font-size="13" lengthAdjust="spacing" textLength="106.3042" x="30.9551" y="150.4966">Load Dashboard</text></g><g class="message" data-participant-1="UI" data-participant-2="API"><polygon fill="#181818" points="414.6411,180.6953,424.6411,184.6953,414.6411,188.6953,418.6411,184.6953" style="stroke:#181818;stroke-width:1;"/><line style="stroke:#181818;stroke-width:1;" x1="195.4473" x2="420.6411" y1="184.6953" y2="184.6953"/><text fill="#000000" font-family="sans-serif" font-size="13" lengthAdjust="spacing" textLength="105.6821" x="202.4473" y="179.6294">GET /employees</text></g><g class="message" data-participant-1="API" data-participant-2="DB"><polygon fill="#181818" points="786.7383,209.8281,796.7383,213.8281,786.7383,217.8281,790.7383,213.8281" style="stroke:#181818;stroke-width:1;"/><line style="stroke:#181818;stroke-width:1;" x1="436.6411" x2="792.7383" y1="213.8281" y2="213.8281"/><text fill="#000000" font-family="sans-serif" font-size="13" lengthAdjust="spacing" textLength="169.9648" x="443.6411" y="208.7622">SELECT * FROM employee</text></g><g class="message" data-participant-1="DB" data-participant-2="API"><polygon fill="#181818" points="447.6411,238.9609,437.6411,242.9609,447.6411,246.9609,443.6411,242.9609" style="stroke:#181818;stroke-width:1;"/><line style="stroke:#181818;stroke-width:1;stroke-dasharray:2,2;" x1="441.6411" x2="802.7383" y1="242.9609" y2="242.9609"/><text fill="#000000" font-family="sans-serif" font-size="13" lengthAdjust="spacing" textLength="40.8472" x="453.6411" y="237.895">[rows]</text></g><g class="message" data-participant-1="API" data-participant-2="UI"><polygon fill="#181818" points="206.4473,268.0938,196.4473,272.0938,206.4473,276.0938,202.4473,272.0938" style="stroke:#181818;stroke-width:1;"/><line style="stroke:#181818;stroke-width:1;stroke-dasharray:2,2;" x1="200.4473" x2="430.6411" y1="272.0938" y2="272.0938"/><text fill="#000000" font-family="sans-serif" font-size="13" lengthAdjust="spacing" textLength="40.8472" x="212.4473" y="267.0278">[rows]</text></g><g class="message" data-participant-1="UI" data-participant-2="User"><polygon fill="#181818" points="34.9551,297.2266,24.9551,301.2266,34.9551,305.2266,30.9551,301.2266" style="stroke:#181818;stroke-width:1;"/><line style="stroke:#181818;stroke-width:1;stroke-dasharray:2,2;" x1="28.9551" x2="189.4473" y1="301.2266" y2="301.2266"/><text fill="#000000" font-family="sans-serif" font-size="13" lengthAdjust="spacing" textLength="83.9224" x="40.9551" y="296.1606">Render table</text></g><rect fill="#EEEEEE" height="3" style="stroke:#EEEEEE;stroke-width:1;" width="1222.6157" x="0" y="329.793"/><line style="stroke:#000000;stroke-width:1;" x1="0" x2="1222.6157" y1="329.793" y2="329.793"/><line style="stroke:#000000;stroke-width:1;" x1="0" x2="1222.6157" y1="332.793" y2="332.793"/><rect fill="#EEEEEE" height="23.1328" style="stroke:#000000;stroke-width:2;" width="122.9512" x="549.8323" y="319.2266"/><text fill="#000000" font-family="sans-serif" font-size="13" font-weight="bold" lengthAdjust="spacing" textLength="104.4253" x="555.8323" y="335.2935">Add Employee</text><g class="message" data-participant-1="User" data-participant-2="UI"><polygon fill="#181818" points="173.4473,369.4922,183.4473,373.4922,173.4473,377.4922,177.4473,373.4922" style="stroke:#181818;stroke-width:1;"/><line style="stroke:#181818;stroke-width:1;" x1="23.9551" x2="179.4473" y1="373.4922" y2="373.4922"/><text fill="#000000" font-family="sans-serif" font-size="13" lengthAdjust="spacing" textLength="142.4922" x="30.9551" y="368.4263">Click &#8220;Add Employee&#8221;</text></g><g class="message" data-participant-1="UI" data-participant-2="API"><polygon fill="#181818" points="414.6411,398.625,424.6411,402.625,414.6411,406.625,418.6411,402.625" style="stroke:#181818;stroke-width:1;"/><line style="stroke:#181818;stroke-width:1;" x1="195.4473" x2="420.6411" y1="402.625" y2="402.625"/><text fill="#000000" font-family="sans-serif" font-size="13" lengthAdjust="spacing" textLength="186.0879" x="202.4473" y="397.5591">POST /employees {payload}</text></g><g class="message" data-participant-1="API" data-participant-2="DB"><polygon fill="#181818" points="786.7383,427.7578,796.7383,431.7578,786.7383,435.7578,790.7383,431.7578" style="stroke:#181818;stroke-width:1;"/><line style="stroke:#181818;stroke-width:1;" x1="436.6411" x2="792.7383" y1="431.7578" y2="431.7578"/><text fill="#000000" font-family="sans-serif" font-size="13" lengthAdjust="spacing" textLength="177.8359" x="443.6411" y="426.6919">INSERT INTO employee (...)</text></g><g class="message" data-participant-1="DB" data-participant-2="API"><polygon fill="#181818" points="447.6411,456.8906,437.6411,460.8906,447.6411,464.8906,443.6411,460.8906" style="stroke:#181818;stroke-width:1;"/><line style="stroke:#181818;stroke-width:1;stroke-dasharray:2,2;" x1="441.6411" x2="802.7383" y1="460.8906" y2="460.8906"/><text fill="#000000" font-family="sans-serif" font-size="13" lengthAdjust="spacing" textLength="71.9888" x="453.6411" y="455.8247">OK (newId)</text></g><g class="message" data-participant-1="API" data-participant-2="Q"><polygon fill="#181818" points="1142.2617,486.0234,1152.2617,490.0234,1142.2617,494.0234,1146.2617,490.0234" style="stroke:#181818;stroke-width:1;"/><line style="stroke:#181818;stroke-width:1;" x1="436.6411" x2="1148.2617" y1="490.0234" y2="490.0234"/><text fill="#000000" font-family="sans-serif" font-size="13" lengthAdjust="spacing" textLength="345.2554" x="443.6411" y="484.9575">enqueueLog(userId,'employee',newId,'CREATE',{...})</text></g><g class="message" data-participant-1="API" data-participant-2="UI"><polygon fill="#181818" points="206.4473,515.1563,196.4473,519.1563,206.4473,523.1563,202.4473,519.1563" style="stroke:#181818;stroke-width:1;"/><line style="stroke:#181818;stroke-width:1;stroke-dasharray:2,2;" x1="200.4473" x2="430.6411" y1="519.1563" y2="519.1563"/><text fill="#000000" font-family="sans-serif" font-size="13" lengthAdjust="spacing" textLength="75.8735" x="212.4473" y="514.0903">{id: newId}</text></g><g class="message" data-participant-1="UI" data-participant-2="User"><polygon fill="#181818" points="34.9551,544.2891,24.9551,548.2891,34.9551,552.2891,30.9551,548.2891" style="stroke:#181818;stroke-width:1;"/><line style="stroke:#181818;stroke-width:1;stroke-dasharray:2,2;" x1="28.9551" x2="184.4473" y1="548.2891" y2="548.2891"/><text fill="#000000" font-family="sans-serif" font-size="13" lengthAdjust="spacing" textLength="104.584" x="40.9551" y="543.2231">Show new entry</text></g><rect fill="#EEEEEE" height="3" style="stroke:#EEEEEE;stroke-width:1;" width="1222.6157" x="0" y="576.8555"/><line style="stroke:#000000;stroke-width:1;" x1="0" x2="1222.6157" y1="576.8555" y2="576.8555"/><line style="stroke:#000000;stroke-width:1;" x1="0" x2="1222.6157" y1="579.8555" y2="579.8555"/><rect fill="#EEEEEE" height="23.1328" style="stroke:#000000;stroke-width:2;" width="147.25" x="537.6829" y="566.2891"/><text fill="#000000" font-family="sans-serif" font-size="13" font-weight="bold" lengthAdjust="spacing" textLength="128.7241" x="543.6829" y="582.356">Update Employee</text><g class="message" data-participant-1="User" data-participant-2="UI"><polygon fill="#181818" points="178.4473,616.5547,188.4473,620.5547,178.4473,624.5547,182.4473,620.5547" style="stroke:#181818;stroke-width:1;"/><line style="stroke:#181818;stroke-width:1;" x1="23.9551" x2="184.4473" y1="620.5547" y2="620.5547"/><text fill="#000000" font-family="sans-serif" font-size="13" lengthAdjust="spacing" textLength="93.6914" x="30.9551" y="615.4888">Edit Employee</text></g><g class="message" data-participant-1="UI" data-participant-2="API"><polygon fill="#181818" points="414.6411,645.6875,424.6411,649.6875,414.6411,653.6875,418.6411,649.6875" style="stroke:#181818;stroke-width:1;"/><line style="stroke:#181818;stroke-width:1;" x1="200.4473" x2="420.6411" y1="649.6875" y2="649.6875"/><text fill="#000000" font-family="sans-serif" font-size="13" lengthAdjust="spacing" textLength="207.1938" x="207.4473" y="644.6216">PUT /employees/123 {updates}</text></g><g class="message" data-participant-1="API" data-participant-2="DB"><polygon fill="#181818" points="786.7383,674.8203,796.7383,678.8203,786.7383,682.8203,790.7383,678.8203" style="stroke:#181818;stroke-width:1;"/><line style="stroke:#181818;stroke-width:1;" x1="436.6411" x2="792.7383" y1="678.8203" y2="678.8203"/><text fill="#000000" font-family="sans-serif" font-size="13" lengthAdjust="spacing" textLength="273.8887" x="443.6411" y="673.7544">SELECT * FROM employee WHERE id=123</text></g><g class="message" data-participant-1="DB" data-participant-2="API"><polygon fill="#181818" points="447.6411,703.9531,437.6411,707.9531,447.6411,711.9531,443.6411,707.9531" style="stroke:#181818;stroke-width:1;"/><line style="stroke:#181818;stroke-width:1;stroke-dasharray:2,2;" x1="441.6411" x2="802.7383" y1="707.9531" y2="707.9531"/><text fill="#000000" font-family="sans-serif" font-size="13" lengthAdjust="spacing" textLength="47.436" x="453.6411" y="702.8872">oldRow</text></g><g class="message" data-participant-1="API" data-participant-2="DB"><polygon fill="#181818" points="786.7383,733.0859,796.7383,737.0859,786.7383,741.0859,790.7383,737.0859" style="stroke:#181818;stroke-width:1;"/><line style="stroke:#181818;stroke-width:1;" x1="436.6411" x2="792.7383" y1="737.0859" y2="737.0859"/><text fill="#000000" font-family="sans-serif" font-size="13" lengthAdjust="spacing" textLength="165.7817" x="443.6411" y="732.02">UPDATE employee SET ...</text></g><g class="message" data-participant-1="DB" data-participant-2="API"><polygon fill="#181818" points="447.6411,762.2188,437.6411,766.2188,447.6411,770.2188,443.6411,766.2188" style="stroke:#181818;stroke-width:1;"/><line style="stroke:#181818;stroke-width:1;stroke-dasharray:2,2;" x1="441.6411" x2="802.7383" y1="766.2188" y2="766.2188"/><text fill="#000000" font-family="sans-serif" font-size="13" lengthAdjust="spacing" textLength="18.7573" x="453.6411" y="761.1528">OK</text></g><g class="message" data-participant-1="API" data-participant-2="Q"><polygon fill="#181818" points="1142.2617,791.3516,1152.2617,795.3516,1142.2617,799.3516,1146.2617,795.3516" style="stroke:#181818;stroke-width:1;"/><line style="stroke:#181818;stroke-width:1;" x1="436.6411" x2="1148.2617" y1="795.3516" y2="795.3516"/><text fill="#000000" font-family="sans-serif" font-size="13" lengthAdjust="spacing" textLength="385.436" x="443.6411" y="790.2856">enqueueFieldLog(userId,'employee',123,'field1',old1,new1)</text></g><g class="message" data-participant-1="API" data-participant-2="Q"><polygon fill="#181818" points="1142.2617,820.4844,1152.2617,824.4844,1142.2617,828.4844,1146.2617,824.4844" style="stroke:#181818;stroke-width:1;"/><line style="stroke:#181818;stroke-width:1;" x1="436.6411" x2="1148.2617" y1="824.4844" y2="824.4844"/><text fill="#000000" font-family="sans-serif" font-size="13" lengthAdjust="spacing" textLength="292.0684" x="443.6411" y="819.4185">enqueueFieldLog(...for each changed field...)</text></g><g class="message" data-participant-1="API" data-participant-2="UI"><polygon fill="#181818" points="211.4473,849.6172,201.4473,853.6172,211.4473,857.6172,207.4473,853.6172" style="stroke:#181818;stroke-width:1;"/><line style="stroke:#181818;stroke-width:1;stroke-dasharray:2,2;" x1="205.4473" x2="430.6411" y1="853.6172" y2="853.6172"/><text fill="#000000" font-family="sans-serif" font-size="13" lengthAdjust="spacing" textLength="83.2495" x="217.4473" y="848.5513">{updated:1}</text></g><g class="message" data-participant-1="UI" data-participant-2="User"><polygon fill="#181818" points="34.9551,878.75,24.9551,882.75,34.9551,886.75,30.9551,882.75" style="stroke:#181818;stroke-width:1;"/><line style="stroke:#181818;stroke-width:1;stroke-dasharray:2,2;" x1="28.9551" x2="189.4473" y1="882.75" y2="882.75"/><text fill="#000000" font-family="sans-serif" font-size="13" lengthAdjust="spacing" textLength="90.0605" x="40.9551" y="877.6841">Show success</text></g><rect fill="#EEEEEE" height="3" style="stroke:#EEEEEE;stroke-width:1;" width="1222.6157" x="0" y="911.3164"/><line style="stroke:#000000;stroke-width:1;" x1="0" x2="1222.6157" y1="911.3164" y2="911.3164"/><line style="stroke:#000000;stroke-width:1;" x1="0" x2="1222.6157" y1="914.3164" y2="914.3164"/><rect fill="#EEEEEE" height="23.1328" style="stroke:#000000;stroke-width:2;" width="142.1909" x="540.2124" y="900.75"/><text fill="#000000" font-family="sans-serif" font-size="13" font-weight="bold" lengthAdjust="spacing" textLength="123.665" x="546.2124" y="916.8169">Delete Employee</text><g class="message" data-participant-1="User" data-participant-2="UI"><polygon fill="#181818" points="183.4473,951.0156,193.4473,955.0156,183.4473,959.0156,187.4473,955.0156" style="stroke:#181818;stroke-width:1;"/><line style="stroke:#181818;stroke-width:1;" x1="23.9551" x2="189.4473" y1="955.0156" y2="955.0156"/><text fill="#000000" font-family="sans-serif" font-size="13" lengthAdjust="spacing" textLength="111.23" x="30.9551" y="949.9497">Delete Employee</text></g><g class="message" data-participant-1="UI" data-participant-2="API"><polygon fill="#181818" points="414.6411,980.1484,424.6411,984.1484,414.6411,988.1484,418.6411,984.1484" style="stroke:#181818;stroke-width:1;"/><line style="stroke:#181818;stroke-width:1;" x1="205.4473" x2="420.6411" y1="984.1484" y2="984.1484"/><text fill="#000000" font-family="sans-serif" font-size="13" lengthAdjust="spacing" textLength="158.4819" x="212.4473" y="979.0825">DELETE /employees/123</text></g><g class="message" data-participant-1="API" data-participant-2="DB"><polygon fill="#181818" points="786.7383,1009.2813,796.7383,1013.2813,786.7383,1017.2813,790.7383,1013.2813" style="stroke:#181818;stroke-width:1;"/><line style="stroke:#181818;stroke-width:1;" x1="436.6411" x2="792.7383" y1="1013.2813" y2="1013.2813"/><text fill="#000000" font-family="sans-serif" font-size="13" lengthAdjust="spacing" textLength="273.8887" x="443.6411" y="1008.2153">SELECT * FROM employee WHERE id=123</text></g><g class="message" data-participant-1="DB" data-participant-2="API"><polygon fill="#181818" points="447.6411,1038.4141,437.6411,1042.4141,447.6411,1046.4141,443.6411,1042.4141" style="stroke:#181818;stroke-width:1;"/><line style="stroke:#181818;stroke-width:1;stroke-dasharray:2,2;" x1="441.6411" x2="802.7383" y1="1042.4141" y2="1042.4141"/><text fill="#000000" font-family="sans-serif" font-size="13" lengthAdjust="spacing" textLength="47.436" x="453.6411" y="1037.3481">oldRow</text></g><g class="message" data-participant-1="API" data-participant-2="DB"><polygon fill="#181818" points="786.7383,1067.5469,796.7383,1071.5469,786.7383,1075.5469,790.7383,1071.5469" style="stroke:#181818;stroke-width:1;"/><line style="stroke:#181818;stroke-width:1;" x1="436.6411" x2="792.7383" y1="1071.5469" y2="1071.5469"/><text fill="#000000" font-family="sans-serif" font-size="13" lengthAdjust="spacing" textLength="264.1514" x="443.6411" y="1066.481">DELETE FROM employee WHERE id=123</text></g><g class="message" data-participant-1="DB" data-participant-2="API"><polygon fill="#181818" points="447.6411,1096.6797,437.6411,1100.6797,447.6411,1104.6797,443.6411,1100.6797" style="stroke:#181818;stroke-width:1;"/><line style="stroke:#181818;stroke-width:1;stroke-dasharray:2,2;" x1="441.6411" x2="802.7383" y1="1100.6797" y2="1100.6797"/><text fill="#000000" font-family="sans-serif" font-size="13" lengthAdjust="spacing" textLength="18.7573" x="453.6411" y="1095.6138">OK</text></g><g class="message" data-participant-1="API" data-participant-2="Q"><polygon fill="#181818" points="1142.2617,1125.8125,1152.2617,1129.8125,1142.2617,1133.8125,1146.2617,1129.8125" style="stroke:#181818;stroke-width:1;"/><line style="stroke:#181818;stroke-width:1;" x1="436.6411" x2="1148.2617" y1="1129.8125" y2="1129.8125"/><text fill="#000000" font-family="sans-serif" font-size="13" lengthAdjust="spacing" textLength="348.0737" x="443.6411" y="1124.7466">enqueueLog(userId,'employee',123,'DELETE',oldRow)</text></g><g class="message" data-participant-1="API" data-participant-2="UI"><polygon fill="#181818" points="216.4473,1154.9453,206.4473,1158.9453,216.4473,1162.9453,212.4473,1158.9453" style="stroke:#181818;stroke-width:1;"/><line style="stroke:#181818;stroke-width:1;stroke-dasharray:2,2;" x1="210.4473" x2="430.6411" y1="1158.9453" y2="1158.9453"/><text fill="#000000" font-family="sans-serif" font-size="13" lengthAdjust="spacing" textLength="78.3999" x="222.4473" y="1153.8794">{deleted:1}</text></g><g class="message" data-participant-1="UI" data-participant-2="User"><polygon fill="#181818" points="34.9551,1184.0781,24.9551,1188.0781,34.9551,1192.0781,30.9551,1188.0781" style="stroke:#181818;stroke-width:1;"/><line style="stroke:#181818;stroke-width:1;stroke-dasharray:2,2;" x1="28.9551" x2="194.4473" y1="1188.0781" y2="1188.0781"/><text fill="#000000" font-family="sans-serif" font-size="13" lengthAdjust="spacing" textLength="81.4023" x="40.9551" y="1183.0122">Remove row</text></g><rect fill="#EEEEEE" height="3" style="stroke:#EEEEEE;stroke-width:1;" width="1222.6157" x="0" y="1216.6445"/><line style="stroke:#000000;stroke-width:1;" x1="0" x2="1222.6157" y1="1216.6445" y2="1216.6445"/><line style="stroke:#000000;stroke-width:1;" x1="0" x2="1222.6157" y1="1219.6445" y2="1219.6445"/><rect fill="#EEEEEE" height="23.1328" style="stroke:#000000;stroke-width:2;" width="149.1226" x="536.7466" y="1206.0781"/><text fill="#000000" font-family="sans-serif" font-size="13" font-weight="bold" lengthAdjust="spacing" textLength="130.5967" x="542.7466" y="1222.145">AuditQueue Flush</text><path d="M755.4717,1246.2109 L832.0957,1246.2109 L832.0957,1253.3438 L822.0957,1263.3438 L755.4717,1263.3438 L755.4717,1246.2109" fill="#EEEEEE" style="stroke:#000000;stroke-width:1.5;"/><rect fill="none" height="75.3984" style="stroke:#000000;stroke-width:1.5;" width="457.144" x="755.4717" y="1246.2109"/><text fill="#000000" font-family="sans-serif" font-size="13" font-weight="bold" lengthAdjust="spacing" textLength="31.624" x="770.4717" y="1259.2778">loop</text><text fill="#000000" font-family="sans-serif" font-size="11" font-weight="bold" lengthAdjust="spacing" textLength="62.772" x="847.0957" y="1258.4214">[every 1s]</text><g class="message" data-participant-1="Q" data-participant-2="DB"><polygon fill="#181818" points="819.7383,1280.4766,809.7383,1284.4766,819.7383,1288.4766,815.7383,1284.4766" style="stroke:#181818;stroke-width:1;"/><line style="stroke:#181818;stroke-width:1;" x1="813.7383" x2="1153.2617" y1="1284.4766" y2="1284.4766"/><text fill="#000000" font-family="sans-serif" font-size="13" lengthAdjust="spacing" textLength="326.5234" x="825.7383" y="1279.4106">Batch INSERT INTO audit_logs (all queued entries)</text></g><g class="message" data-participant-1="DB" data-participant-2="Q"><polygon fill="#181818" points="1142.2617,1309.6094,1152.2617,1313.6094,1142.2617,1317.6094,1146.2617,1313.6094" style="stroke:#181818;stroke-width:1;"/><line style="stroke:#181818;stroke-width:1;stroke-dasharray:2,2;" x1="803.7383" x2="1148.2617" y1="1313.6094" y2="1313.6094"/><text fill="#000000" font-family="sans-serif" font-size="13" lengthAdjust="spacing" textLength="18.7573" x="810.7383" y="1308.5435">OK</text></g><rect fill="#EEEEEE" height="3" style="stroke:#EEEEEE;stroke-width:1;" width="1222.6157" x="0" y="1349.1758"/><line style="stroke:#000000;stroke-width:1;" x1="0" x2="1222.6157" y1="1349.1758" y2="1349.1758"/><line style="stroke:#000000;stroke-width:1;" x1="0" x2="1222.6157" y1="1352.1758" y2="1352.1758"/><rect fill="#EEEEEE" height="23.1328" style="stroke:#000000;stroke-width:2;" width="118.9395" x="551.8381" y="1338.6094"/><text fill="#000000" font-family="sans-serif" font-size="13" font-weight="bold" lengthAdjust="spacing" textLength="100.4136" x="557.8381" y="1354.6763">Error Logging</text><g class="message" data-participant-1="User" data-participant-2="UI"><polygon fill="#181818" points="188.4473,1388.875,198.4473,1392.875,188.4473,1396.875,192.4473,1392.875" style="stroke:#181818;stroke-width:1;"/><line style="stroke:#181818;stroke-width:1;" x1="23.9551" x2="194.4473" y1="1392.875" y2="1392.875"/><text fill="#000000" font-family="sans-serif" font-size="13" lengthAdjust="spacing" textLength="112.9756" x="30.9551" y="1387.8091">Any failing action</text></g><g class="message" data-participant-1="UI" data-participant-2="API"><polygon fill="#181818" points="414.6411,1418.0078,424.6411,1422.0078,414.6411,1426.0078,418.6411,1422.0078" style="stroke:#181818;stroke-width:1;"/><line style="stroke:#181818;stroke-width:1;" x1="210.4473" x2="420.6411" y1="1422.0078" y2="1422.0078"/><text fill="#000000" font-family="sans-serif" font-size="13" lengthAdjust="spacing" textLength="102.9717" x="217.4473" y="1416.9419">Call that throws</text></g><g class="message" data-participant-1="API" data-participant-2="API"><line style="stroke:#181818;stroke-width:1;stroke-dasharray:2,2;" x1="436.6411" x2="478.6411" y1="1451.1406" y2="1451.1406"/><line style="stroke:#181818;stroke-width:1;stroke-dasharray:2,2;" x1="478.6411" x2="478.6411" y1="1451.1406" y2="1464.1406"/><line style="stroke:#181818;stroke-width:1;stroke-dasharray:2,2;" x1="437.6411" x2="478.6411" y1="1464.1406" y2="1464.1406"/><polygon fill="#181818" points="447.6411,1460.1406,437.6411,1464.1406,447.6411,1468.1406,443.6411,1464.1406" style="stroke:#181818;stroke-width:1;"/><text fill="#000000" font-family="sans-serif" font-size="13" lengthAdjust="spacing" textLength="81.8403" x="443.6411" y="1446.0747">Error thrown</text></g><g class="message" data-participant-1="API" data-participant-2="DB"><polygon fill="#181818" points="786.7383,1489.2734,796.7383,1493.2734,786.7383,1497.2734,790.7383,1493.2734" style="stroke:#181818;stroke-width:1;"/><line style="stroke:#181818;stroke-width:1;" x1="436.6411" x2="792.7383" y1="1493.2734" y2="1493.2734"/><text fill="#000000" font-family="sans-serif" font-size="13" lengthAdjust="spacing" textLength="343.0972" x="443.6411" y="1488.2075">INSERT INTO logs(event_type='ERROR', message,...)</text></g><g class="message" data-participant-1="DB" data-participant-2="API"><polygon fill="#181818" points="447.6411,1518.4063,437.6411,1522.4063,447.6411,1526.4063,443.6411,1522.4063" style="stroke:#181818;stroke-width:1;"/><line style="stroke:#181818;stroke-width:1;stroke-dasharray:2,2;" x1="441.6411" x2="802.7383" y1="1522.4063" y2="1522.4063"/><text fill="#000000" font-family="sans-serif" font-size="13" lengthAdjust="spacing" textLength="18.7573" x="453.6411" y="1517.3403">OK</text></g><g class="message" data-participant-1="API" data-participant-2="UI"><polygon fill="#181818" points="221.4473,1547.5391,211.4473,1551.5391,221.4473,1555.5391,217.4473,1551.5391" style="stroke:#181818;stroke-width:1;"/><line style="stroke:#181818;stroke-width:1;stroke-dasharray:2,2;" x1="215.4473" x2="430.6411" y1="1551.5391" y2="1551.5391"/><text fill="#000000" font-family="sans-serif" font-size="13" lengthAdjust="spacing" textLength="162.373" x="227.4473" y="1546.4731">500 Internal Server Error</text></g><g class="message" data-participant-1="UI" data-participant-2="User"><polygon fill="#181818" points="34.9551,1576.6719,24.9551,1580.6719,34.9551,1584.6719,30.9551,1580.6719" style="stroke:#181818;stroke-width:1;"/><line style="stroke:#181818;stroke-width:1;stroke-dasharray:2,2;" x1="28.9551" x2="199.4473" y1="1580.6719" y2="1580.6719"/><text fill="#000000" font-family="sans-serif" font-size="13" lengthAdjust="spacing" textLength="71.1953" x="40.9551" y="1575.606">Show error</text></g><!--SRC=[nLLDRzf04BtxLunoCLJE1wrwGI8IOAT5fG5iK0zL5Msy4x2wyRhsEXGXfFoGzi_bbtHs3SGacAIzz8AHv-tCc_V6ionKCeL9XgcLi5H5OPImMC6HZonKCEaT0SleiHlqVYOfPXcqXqMSdXPdYbsp3E4e6FKZXU1sJCpjx9vjvpnIennpDE6HPRLQC6HJXBva75ejIvE1utEg2itYfSkosRLaARU8L7J7A3jHeZYXg3R1FdXZECNRHCW5OlO8qymqWe1kXt21r_UwOtW35_xWCsmEFEA9BU6Ejtc_fdAUVRCubX4cuORWSuIkELaZT2jDy37cz8S44bX6KXEw-pRduAsfF1EWAwBmEppS_ogZ7kv_Lqen70HbBM2Pi8KW5LVLglGk0yyVqsCys6e2jPEJatgrCeDFK8jntkFrVUgSmuWm6F_GHlVbj9PJJptks9lqjcCEEtRNzzfZptQML6vLtzLs6V4c6DpgiC31JCura2ggT654dIHSOojrzMWCjz5gCITbBKyRRz_1CZUPizNVJXby-UZv7aIyHMcgXPM2-tA-NrIJVJ9qIR77j07DFebtoAeNBRg8KF3zFX5PnxxHyORj4Bc6TgvHFvI4sDpGLg6QCmXdB9uY1vF1ZDIknOMQlDbuZSLP7eQqU8p1BWeyPF2JUAN5Bfb5Skww_B-yNPFvbzolSFc0mKLXOp0nV6eIDrg-R9AFj_8EWLPYiTYsknukH9xDj4T2oWJm3jC5D38BYDwczmvJD2_bNSJq-IiXfndKc11Wck3c8uymgzFfShy0Qpr6XHe0kthG4ZQil3IbuIGjfb4yVJOsxNW1DomIEgPFoxXoShgQavenHJ_w5jWpD5jiKTJWuihTgpkjaJQnkbAB15ksv_i3ttRWbeQUhaZdfPLywA9wVtO6lLXX6ZC10QPaGS7g5TyTQjmV]--></g></svg>